<?xml version="1.0" encoding="UTF-8" standalone="no"?>
<!-- Created with Inkscape (http://www.inkscape.org/) -->

<svg
   xmlns:dc="http://purl.org/dc/elements/1.1/"
   xmlns:cc="http://creativecommons.org/ns#"
   xmlns:rdf="http://www.w3.org/1999/02/22-rdf-syntax-ns#"
   xmlns:svg="http://www.w3.org/2000/svg"
   xmlns="http://www.w3.org/2000/svg"
   xmlns:xlink="http://www.w3.org/1999/xlink"
   xmlns:sodipodi="http://sodipodi.sourceforge.net/DTD/sodipodi-0.dtd"
   xmlns:inkscape="http://www.inkscape.org/namespaces/inkscape"
   width="487.95337"
   height="121.40625"
   id="svg5265"
   version="1.1"
   inkscape:version="0.48.4 r9943 custom"
   sodipodi:docname="Logo Completo.svg"
   inkscape:export-filename="/Users/ogarcia/Dropbox/Diseño/Madrid DevOps/Logo Completo.png"
   inkscape:export-xdpi="1323"
   inkscape:export-ydpi="1323">
  <defs
     id="defs5267">
    <clipPath
       clipPathUnits="userSpaceOnUse"
       id="clipPath3809">
      <path
         inkscape:connector-curvature="0"
         d="m 0,841.89 595.28,0 L 595.28,0 0,0 0,841.89 z"
         id="path3811" />
    </clipPath>
    <clipPath
       clipPathUnits="userSpaceOnUse"
       id="clipPath3821">
      <path
         inkscape:connector-curvature="0"
         d="m 34.7236,791.844 249.7074,0 0,-191.021 -249.7074,0 0,191.021 z"
         id="path3823" />
    </clipPath>
    <clipPath
       clipPathUnits="userSpaceOnUse"
       id="clipPath3825">
      <path
         inkscape:connector-curvature="0"
         d="m 180.986,688.868 -44.18,0 -1.71,0 c -6.017,0 -10.324,-0.836 -12.92,-2.419 l 0,0 c -1.964,-1.203 -3.18,-3.031 -3.812,-5.436 l 0,0 c -0.508,-1.839 -0.675,-4.805 -0.675,-8.858 l 0,0 0,-11.401 c 0,-4.56 -0.909,-7.776 -2.556,-9.644 l 0,0 c -1.647,-1.868 -4.538,-2.569 -8.591,-2.569 l 0,0 c -0.191,0 -0.582,0.327 -1.088,0.327 l 0,0 -0.765,0 0,-2.503 c 16.565,-4.984 35.196,-7.784 54.888,-7.784 l 0,0 c 19.385,0 37.742,2.713 54.112,7.552 l 0,0 0,2.735 -1.507,0 c -0.508,0 -0.855,-0.327 -1.045,-0.327 l 0,0 c -4.054,0 -6.618,0.817 -8.265,2.686 l 0,0 c -1.647,1.867 -2.184,4.967 -2.184,9.527 l 0,0 0,11.401 c 0,4.053 -0.54,6.997 -1.046,8.835 l 0,0 c -0.634,2.407 -2.076,4.256 -4.038,5.459 l 0,0 c -2.535,1.583 -6.984,2.419 -13.064,2.419 l 0,0 -1.554,0 z"
         id="path3827" />
    </clipPath>
    <mask
       maskUnits="userSpaceOnUse"
       x="0"
       y="0"
       width="1"
       height="1"
       id="mask3839">
      <g
         id="g3841">
        <g
           id="g3843">
          <g
             id="g3845">
            <g
               id="g3847">
              <path
                 inkscape:connector-curvature="0"
                 d="m -32767,32767 65534,0 0,-65534 -65534,0 0,65534 z"
                 style="fill:url(#radialGradient3833);stroke:none"
                 id="path3849" />
            </g>
          </g>
        </g>
      </g>
    </mask>
    <radialGradient
       fx="0"
       fy="0"
       cx="0"
       cy="0"
       r="1"
       gradientUnits="userSpaceOnUse"
       gradientTransform="matrix(124.85034,0,0,-76.633133,159.57715,715.21289)"
       spreadMethod="pad"
       id="radialGradient3833">
      <stop
         style="stop-opacity:0;stop-color:#ffffff"
         offset="0"
         id="stop3835" />
      <stop
         style="stop-opacity:1;stop-color:#ffffff"
         offset="1"
         id="stop3837" />
    </radialGradient>
    <radialGradient
       fx="0"
       fy="0"
       cx="0"
       cy="0"
       r="1"
       gradientUnits="userSpaceOnUse"
       gradientTransform="matrix(124.85034,0,0,-76.633133,159.57715,715.21289)"
       spreadMethod="pad"
       id="radialGradient3851">
      <stop
         style="stop-opacity:1;stop-color:#ffffff"
         offset="0"
         id="stop3853" />
      <stop
         style="stop-opacity:1;stop-color:#ffffff"
         offset="1"
         id="stop3855" />
    </radialGradient>
    <linearGradient
       x1="0"
       y1="0"
       x2="1"
       y2="0"
       gradientUnits="userSpaceOnUse"
       gradientTransform="matrix(0,-86.071213,-86.071213,0,159.18848,688.36816)"
       spreadMethod="pad"
       id="linearGradient3797">
      <stop
         style="stop-opacity:1;stop-color:#7ebf28"
         offset="0"
         id="stop3799" />
      <stop
         style="stop-opacity:1;stop-color:#6fb019"
         offset="1"
         id="stop3801" />
    </linearGradient>
    <clipPath
       clipPathUnits="userSpaceOnUse"
       id="clipPath3757">
      <path
         inkscape:connector-curvature="0"
         d="m 0,841.89 595.28,0 L 595.28,0 0,0 0,841.89 z"
         id="path3759" />
    </clipPath>
    <linearGradient
       inkscape:collect="always"
       xlink:href="#linearGradient3797"
       id="linearGradient5777"
       gradientUnits="userSpaceOnUse"
       gradientTransform="matrix(0,107.58902,-107.58902,0,-101.56662,452.7078)"
       spreadMethod="pad"
       x1="0"
       y1="0"
       x2="1"
       y2="0" />
    <radialGradient
       inkscape:collect="always"
       xlink:href="#radialGradient3851"
       id="radialGradient5779"
       gradientUnits="userSpaceOnUse"
       gradientTransform="matrix(156.06292,0,0,95.791416,-101.08078,419.15189)"
       spreadMethod="pad"
       cx="0"
       cy="0"
       fx="0"
       fy="0"
       r="1" />
    <radialGradient
       inkscape:collect="always"
       xlink:href="#radialGradient3851"
       id="radialGradient5804"
       gradientUnits="userSpaceOnUse"
       gradientTransform="matrix(156.06292,0,0,95.791416,-101.08078,419.15189)"
       spreadMethod="pad"
       cx="0"
       cy="0"
       fx="0"
       fy="0"
       r="1" />
    <linearGradient
       inkscape:collect="always"
       xlink:href="#linearGradient3797"
       id="linearGradient5808"
       gradientUnits="userSpaceOnUse"
       gradientTransform="matrix(0,107.58902,-107.58902,0,68.12435,11.98181)"
       spreadMethod="pad"
       x1="0"
       y1="0"
       x2="1"
       y2="0" />
    <linearGradient
       inkscape:collect="always"
       xlink:href="#linearGradient3797"
       id="linearGradient5819"
       gradientUnits="userSpaceOnUse"
       gradientTransform="matrix(0,107.58902,-107.58902,0,68.12435,11.98181)"
       spreadMethod="pad"
       x1="0"
       y1="0"
       x2="1"
       y2="0" />
  </defs>
  <sodipodi:namedview
     id="base"
     pagecolor="#ffffff"
     bordercolor="#666666"
     borderopacity="1.0"
     inkscape:pageopacity="0.0"
     inkscape:pageshadow="2"
     inkscape:zoom="2.3034988"
     inkscape:cx="243.97668"
     inkscape:cy="58.341499"
     inkscape:document-units="px"
     inkscape:current-layer="layer1"
     showgrid="false"
     fit-margin-top="0"
     fit-margin-left="0"
     fit-margin-right="0"
     fit-margin-bottom="0"
     inkscape:window-width="1280"
     inkscape:window-height="716"
     inkscape:window-x="0"
     inkscape:window-y="22"
     inkscape:window-maximized="0" />
  <metadata
     id="metadata5270">
    <rdf:RDF>
      <cc:Work
         rdf:about="">
        <dc:format>image/svg+xml</dc:format>
        <dc:type
           rdf:resource="http://purl.org/dc/dcmitype/StillImage" />
        <dc:title></dc:title>
      </cc:Work>
    </rdf:RDF>
  </metadata>
  <g
     inkscape:label="Capa 1"
     inkscape:groupmode="layer"
     id="layer1"
     transform="translate(169.69097,-440.72599)">
    <g
       id="g5821">
      <g
         transform="matrix(1.25,0,0,-1.25,-300.55222,1313.168)"
         id="g3819" />
      <text
         id="text3749"
         x="-22.190348"
         y="479.88251"
         style="font-size:15px">
        <tspan
           id="tspan3751"
           sodipodi:role="line"
           y="479.88251"
           x="-22.190348 24.91503 52.1269 83.101021 102.42762 115.26051"
           style="font-size:51.53762436px;font-variant:normal;font-weight:normal;font-stretch:normal;writing-mode:lr-tb;fill:#7ebf28;fill-opacity:1;fill-rule:nonzero;stroke:none;font-family:Museo Sans 500;-inkscape-font-specification:MuseoSans-500">madrid</tspan>
      </text>
      <path
         inkscape:connector-curvature="0"
         d="m 2.74003,505.66062 c -1.44125,0 -2.9125,0.0163 -4.415,0.0475 -1.5025,0.0312 -2.6625,0.10875 -3.47625,0.235 l 0,42.64875 c 0.3125,0.0638 0.79875,0.11125 1.45625,0.14125 0.6575,0.0325 1.34625,0.0638 2.0675,0.0937 0.7175,0.0325 1.40875,0.0638 2.065,0.0937 0.65875,0.0325 1.1425,0.0475 1.4575,0.0475 4.00625,0 7.3275,-0.625 9.9575,-1.87875 2.63125,-1.2525 4.7125,-2.9125 6.24625,-4.97875 1.535,-2.0675 2.615,-4.41625 3.2425,-7.04625 0.625,-2.63 0.93875,-5.355 0.93875,-8.1725 0,-2.31625 -0.2825,-4.7275 -0.84625,-7.23375 -0.5625,-2.50375 -1.5825,-4.79125 -3.05125,-6.8575 -1.4725,-2.0675 -3.4625,-3.7725 -5.9675,-5.12 -2.505,-1.34625 -5.73,-2.02 -9.675,-2.02 m -21.795,-11.27375 c 1.3775,-0.1875 2.96,-0.3425 4.74375,-0.46875 1.785,-0.125 3.6325,-0.21875 5.5425,-0.2825 1.91,-0.0613 3.77375,-0.10875 5.59125,-0.14 1.815,-0.0312 3.4425,-0.0475 4.885,-0.0475 6.26125,0 11.63125,0.83125 16.11125,2.49 4.47625,1.66 8.13875,3.96125 10.99,6.905 2.85,2.94375 4.9325,6.45 6.24875,10.52125 1.31375,4.07125 1.9725,8.5175 1.9725,13.33875 0,4.385 -0.64375,8.64375 -1.92625,12.7775 -1.285,4.1325 -3.3675,7.8125 -6.2475,11.0375 -2.88125,3.22625 -6.63875,5.81 -11.2725,7.75 -4.63625,1.94125 -10.335,2.9125 -17.09875,2.9125 -1.065,0 -2.52125,-0.0325 -4.36875,-0.0937 -1.8475,-0.0625 -3.7575,-0.14125 -5.73,-0.235 -1.9725,-0.0937 -3.82,-0.1875 -5.54125,-0.28125 -1.72375,-0.0937 -3.0225,-0.205 -3.9,-0.32875 l 0,-65.855 z"
         style="fill:#333333;fill-opacity:1;fill-rule:nonzero;stroke:none"
         id="path3763" />
      <path
         inkscape:connector-curvature="0"
         d="m 43.764155,494.3875 42.3675,0 0,12.2125 -28.465,0 0,14.27875 25.835,0 0,12.2125 -25.835,0 0,14.84375 28.93625,0 0,12.2125 -42.83875,0 0,-65.76 z"
         style="fill:#333333;fill-opacity:1;fill-rule:nonzero;stroke:none"
         id="path3767" />
      <path
         inkscape:connector-curvature="0"
         d="m 120.85528,538.01475 15.8175,-43.6275 14.655,0 -26.58625,66.23 -9.9575,0 -26.7725,-66.23 16.15625,0 16.6875,43.6275 z"
         style="fill:#333333;fill-opacity:1;fill-rule:nonzero;stroke:none"
         id="path3771" />
      <path
         inkscape:connector-curvature="0"
         d="m 163.16478,527.26775 c 0,3.25625 0.3125,6.2325 0.94,8.925 0.625,2.6925 1.565,5.01 2.8175,6.95125 1.2525,1.94125 2.86625,3.445 4.83875,4.50875 1.9725,1.06625 4.30375,1.5975 6.99875,1.5975 4.9475,0 8.7975,-1.69125 11.555,-5.07375 2.755,-3.38125 4.1325,-9.0175 4.1325,-16.90875 0,-3.13125 -0.28125,-6.04375 -0.845,-8.7375 -0.565,-2.69125 -1.48875,-5.025 -2.77125,-6.9975 -1.285,-1.97375 -2.9125,-3.5075 -4.885,-4.60375 -1.97375,-1.095 -4.36875,-1.64375 -7.18625,-1.64375 -4.885,0 -8.705,1.75375 -11.46125,5.26125 -2.75625,3.5075 -4.13375,9.08125 -4.13375,16.72125 m -14.74875,0 c 0,-5.38625 0.68875,-10.2075 2.06625,-14.4675 1.3775,-4.2575 3.36625,-7.84375 5.96625,-10.75625 2.5975,-2.9125 5.77625,-5.135 9.535,-6.67 3.7575,-1.53375 8.01625,-2.30125 12.77625,-2.30125 5.0725,0 9.5025,0.83125 13.29125,2.48875 3.79,1.66 6.95375,3.9925 9.49,6.99875 2.53625,3.00625 4.44625,6.60875 5.73,10.80375 1.28375,4.19625 1.92625,8.83 1.92625,13.90375 0,5.3875 -0.705,10.20875 -2.11375,14.4675 -1.40875,4.25875 -3.42875,7.84375 -6.06,10.75625 -2.62875,2.91125 -5.82375,5.13625 -9.5825,6.67 -3.7575,1.53375 -7.985,2.30125 -12.68125,2.30125 -5.0725,0 -9.505,-0.83125 -13.2925,-2.49 -3.79,-1.65875 -6.9525,-3.9925 -9.48875,-6.99875 -2.53625,-3.00625 -4.4325,-6.60625 -5.68375,-10.8025 -1.25375,-4.195 -1.87875,-8.83125 -1.87875,-13.90375"
         style="fill:#333333;fill-opacity:1;fill-rule:nonzero;stroke:none"
         id="path3775" />
      <path
         inkscape:connector-curvature="0"
         d="m 236.59741,505.66062 c -1.315,0 -2.5825,0.0325 -3.80375,0.0937 -1.2225,0.0625 -2.20875,0.18875 -2.95875,0.37625 l 0,19.54 c 0.24875,0.0625 0.65625,0.12625 1.22,0.1875 0.565,0.0625 1.1575,0.11 1.785,0.14125 0.625,0.0325 1.20625,0.0625 1.73875,0.0937 0.53125,0.0325 0.95375,0.0475 1.2675,0.0475 1.81625,0 3.6325,-0.125 5.44875,-0.37625 1.81625,-0.25 3.43,-0.7825 4.83875,-1.5975 1.40875,-0.8125 2.55125,-1.925 3.4275,-3.335 0.87625,-1.40875 1.31625,-3.3025 1.31625,-5.68375 0,-2.0025 -0.4075,-3.61625 -1.22125,-4.8375 -0.815,-1.22125 -1.895,-2.175 -3.24125,-2.865 -1.34875,-0.68875 -2.88125,-1.15875 -4.6025,-1.40875 -1.72375,-0.25 -3.4625,-0.37625 -5.215,-0.37625 m -20.66625,-10.615 c 2.8175,-0.50125 5.95,-0.89375 9.39375,-1.175 3.4425,-0.28125 6.8875,-0.4225 10.33375,-0.4225 3.5075,0 7.045,0.2675 10.615,0.79875 3.57125,0.5325 6.77875,1.59625 9.63,3.19375 2.85,1.5975 5.18125,3.82 6.9975,6.67 1.81625,2.85125 2.725,6.6225 2.725,11.32 0,4.13375 -0.78375,7.65625 -2.34875,10.56875 -1.565,2.9125 -3.64875,5.27625 -6.24625,7.0925 -2.6,1.8175 -5.56,3.1475 -8.87875,3.9925 -3.32,0.845 -6.73375,1.26875 -10.23875,1.26875 l -1.5975,0 c -0.75125,0 -1.55,-0.015 -2.39625,-0.0475 -0.845,-0.0312 -1.64375,-0.0775 -2.39625,-0.14125 -0.75,-0.0612 -1.3125,-0.125 -1.68875,-0.1875 l 0,22.17 -13.90375,0 0,-65.10125 z"
         style="fill:#333333;fill-opacity:1;fill-rule:nonzero;stroke:none"
         id="path3779" />
      <path
         inkscape:connector-curvature="0"
         d="m 304.35866,542.11025 c 0,-1.94 -0.81375,-3.47625 -2.44125,-4.60375 -1.63,-1.12625 -3.65,-2.16 -6.06,-3.1 -2.41125,-0.93875 -5.02625,-1.87875 -7.84375,-2.8175 -2.81875,-0.93875 -5.435,-2.19125 -7.845,-3.7575 -2.41125,-1.565 -4.43,-3.5375 -6.05875,-5.91875 -1.62875,-2.38 -2.4425,-5.48 -2.4425,-9.3 0,-3.25625 0.57875,-6.12125 1.7375,-8.59625 1.15875,-2.47375 2.78625,-4.50875 4.885,-6.10625 2.0975,-1.5975 4.635,-2.8025 7.60875,-3.61625 2.97375,-0.81375 6.2475,-1.22125 9.8175,-1.22125 4.13375,0 8.06375,0.36125 11.79,1.08 3.725,0.72 6.77875,1.7375 9.16,3.05375 l -4.41625,11.64875 c -0.75125,-0.43875 -1.7075,-0.8925 -2.865,-1.3625 -1.15875,-0.47 -2.49,-0.87625 -3.9925,-1.22125 -1.5025,-0.34375 -3.09875,-0.625 -4.79125,-0.84625 -1.69,-0.2175 -3.41375,-0.3275 -5.16625,-0.3275 -3.1325,0 -5.55875,0.54875 -7.28125,1.64375 -1.7225,1.09625 -2.5825,2.615 -2.5825,4.55625 0,1.94125 0.8125,3.49125 2.4425,4.65 1.62875,1.16 3.6475,2.22375 6.05875,3.19375 2.41,0.97125 5.02625,1.9425 7.845,2.9125 2.8175,0.97125 5.4325,2.22375 7.84375,3.7575 2.41,1.535 4.42875,3.46125 6.05875,5.7775 1.62875,2.3175 2.4425,5.2925 2.4425,8.925 0,3.6325 -0.6275,6.76375 -1.87875,9.39375 -1.25375,2.63 -3.0225,4.80625 -5.3075,6.52875 -2.28625,1.72375 -5.025,2.99125 -8.22,3.805 -3.195,0.8125 -6.7025,1.22125 -10.52125,1.22125 -2.56875,0 -4.995,-0.14125 -7.28,-0.4225 -2.2875,-0.2825 -4.4025,-0.6275 -6.3425,-1.03375 -1.94125,-0.40625 -3.64875,-0.845 -5.12,-1.315 -1.4725,-0.47 -2.64625,-0.92375 -3.5225,-1.3625 l 4.60375,-11.7425 c 0.68875,0.37625 1.6425,0.78375 2.865,1.22125 1.22125,0.43875 2.58375,0.86125 4.085,1.2675 1.505,0.40875 3.11625,0.7375 4.84,0.9875 1.72125,0.25 3.45875,0.375 5.2125,0.375 4.13375,0 7.2825,-0.59375 9.4425,-1.785 2.16125,-1.18875 3.24,-3.0375 3.24,-5.5425"
         style="fill:#333333;fill-opacity:1;fill-rule:nonzero;stroke:none"
         id="path3783" />
      <path
         sodipodi:nodetypes="sccssscccscsscccccscccsscccccccccccsscccscsccccssccsccs"
         inkscape:connector-curvature="0"
         id="path3803"
         transform="translate(-169.69097,440.72599)"
         d="m 38,11.34375 c -7.52125,0 -12.91125,1.0525 -16.15625,3.03125 -2.455,1.50375 -3.96,3.80625 -4.75,6.8125 C 16.45875,23.48625 16.25,27.18375 16.25,32.25 l 0,14.25 c 0,5.7 -1.12875,9.7275 -3.1875,12.0625 -2.05875,2.335 -5.68375,3.20125 -10.75,3.21875 C 0.04625,61.78825 0,61.34375 0,61.34375 l 0,9.25 c 0,0 0.1125,-0.5 2.15625,-0.5 5.145,0 8.8475,1.405 10.90625,3.78125 2.05875,2.375 3.1875,6.58125 3.1875,12.28125 l 0,14.03125 c 0,5.065 0.20875,8.73375 0.84375,11.03125 0.79,3.0075 2.35625,5.27625 4.8125,6.78125 3.08875,1.90125 8.33875,2.84375 15.78125,2.84375 l 60.625,0.5625 -2.09375,-0.0625 1.4375,0 c 2.88923,0 5.45428,-0.16641 7.6875,-0.5 L 79.375,94.90625 C 78.5125,94.045 76.83625,93.5725 75.65625,93.875 c 0,0 -4.303755,1.09375 -7.78125,1.09375 -16.86,0 -30.53125,-13.64125 -30.53125,-30.5 0,-3.68625 1.28125,-8.375 1.28125,-8.375 0.32125,-1.1775 1.28875,-1.42125 2.15625,-0.5625 L 61.125,75.6875 c 0.8675,0.85875 1.7275,1.7275 1.90625,1.90625 0.1775,0.18 1.29251,0.065 2.46875,-0.25 l 10.71875,-2.875 c 1.1775,-0.315 2.4025,-1.54125 2.71875,-2.71875 L 81.8125,61 c 0.31625,-1.1775 -0.13,-2.83125 -1,-3.6875 L 60.125,36.9375 c -0.86876,-0.855 -0.59125,-1.77875 0.59375,-2.0625 0,0 3.90625,-0.9375 7.15625,-0.9375 16.859995,0 30.53125,13.67375 30.53125,30.53125 0,3.4925 -1.125,7.8125 -1.125,7.8125 -0.30375,1.18 0.17,2.85625 1.03125,3.71875 L 120,97.6875 120,86.15625 c 0,-5.7 0.66,-9.90625 2.71875,-12.28125 2.05875,-2.37625 5.32125,-3.78125 10.46875,-3.78125 3.07125,0 3.0625,0.5 3.0625,0.5 l 0,-9.25 c 0,0 -0.0513,0.445 -3.1875,0.4375 -5.0675,-0.0138 -8.285,-1.03875 -10.34375,-3.375 C 120.66,56.0725 120,52.2 120,46.5 l 0,-14.25 c 0,-5.06625 -0.68,-8.73375 -1.3125,-11.03125 -0.7925,-3.00875 -2.57875,-5.34 -5.03125,-6.84375 -3.16875,-1.97875 -8.74375,-3.03125 -16.34375,-3.03125 l -1.9375,0 -55.21875,0 z"
         style="fill:url(#linearGradient5819);stroke:none" />
      <path
         id="path3873"
         style="opacity:0.19999701;fill:url(#radialGradient5804);stroke:none"
         d="m -74.31972,452.083 -55.225,0 -2.1375,0 c -7.52125,0 -12.905,1.045 -16.15,3.02375 l 0,0 c -2.455,1.50375 -3.975,3.78875 -4.765,6.795 l 0,0 c -0.635,2.29875 -0.84375,6.00625 -0.84375,11.0725 l 0,0 0,14.25125 c 0,5.7 -1.13625,9.72 -3.195,12.055 l 0,0 c -2.05875,2.335 -5.6725,3.21125 -10.73875,3.21125 l 0,0 c -0.23875,0 -0.7275,-0.40875 -1.36,-0.40875 l 0,0 -0.95625,0 0,3.12875 c 20.70625,6.23 43.995,9.73 68.61,9.73 l 0,0 c 24.23125,0 47.1775,-3.39125 67.64,-9.44 l 0,0 0,-3.41875 -1.88375,0 c -0.635,0 -1.06875,0.40875 -1.30625,0.40875 l 0,0 c -5.0675,0 -8.2725,-1.02125 -10.33125,-3.3575 l 0,0 c -2.05875,-2.33375 -2.73,-6.20875 -2.73,-11.90875 l 0,0 0,-14.25125 c 0,-5.06625 -0.675,-8.74625 -1.3075,-11.04375 l 0,0 c -0.7925,-3.00875 -2.595,-5.32 -5.0475,-6.82375 l 0,0 c -3.16875,-1.97875 -8.73,-3.02375 -16.33,-3.02375 l 0,0 -1.9425,0 z"
         inkscape:connector-curvature="0" />
      <path
         inkscape:connector-curvature="0"
         d="m -92.69697,514.8495 c -2.9125,0.0687 -5.8425,0.0862 -8.79125,0.0462 -2.98,-0.0462 -5.9425,-0.1375 -8.88875,-0.26875 l 1.10625,1.09625 c 2.5525,0.11625 5.1175,0.2025 7.69625,0.24125 1.735,0.025 3.4625,0.02 5.18625,10e-4 l 2.925,-0.78375 c 0.25625,-0.0688 0.515,-0.1875 0.76625,-0.3325"
         style="fill:#add281;fill-opacity:1;fill-rule:nonzero;stroke:none"
         id="path3877" />
      <path
         inkscape:connector-curvature="0"
         d="m -72.482095,513.4665 c -0.02625,0.26375 -0.01375,0.54375 0.02,0.82625 13.75625,-1.77 26.85,-4.86375 38.86375,-9.00625 -12.105,3.8575 -25.18,6.62625 -38.88375,8.18"
         style="fill:#add281;fill-opacity:1;fill-rule:nonzero;stroke:none"
         id="path3881" />
      <path
         inkscape:connector-curvature="0"
         d="m -131.35297,512.88662 c -13.44625,-1.61125 -26.32375,-4.155 -38.26,-7.67875 11.97,3.8425 24.92625,6.7425 38.51125,8.565 -0.085,-0.29375 -0.1725,-0.58875 -0.25125,-0.88625"
         style="fill:#add281;fill-opacity:1;fill-rule:nonzero;stroke:none"
         id="path3885" />
    </g>
  </g>
</svg>
