<?xml version="1.0" encoding="UTF-8" standalone="no"?>
<!-- Created with Inkscape (http://www.inkscape.org/) -->

<svg
   xmlns:dc="http://purl.org/dc/elements/1.1/"
   xmlns:cc="http://creativecommons.org/ns#"
   xmlns:rdf="http://www.w3.org/1999/02/22-rdf-syntax-ns#"
   xmlns:svg="http://www.w3.org/2000/svg"
   xmlns="http://www.w3.org/2000/svg"
   xmlns:xlink="http://www.w3.org/1999/xlink"
   xmlns:sodipodi="http://sodipodi.sourceforge.net/DTD/sodipodi-0.dtd"
   xmlns:inkscape="http://www.inkscape.org/namespaces/inkscape"
   width="136.25"
   height="114.7725"
   id="svg4228"
   version="1.1"
   inkscape:version="0.48.4 r9943 custom"
   sodipodi:docname="Documento nuevo 14">
  <defs
     id="defs4230">
    <clipPath
       clipPathUnits="userSpaceOnUse"
       id="clipPath3809">
      <path
         inkscape:connector-curvature="0"
         d="m 0,841.89 595.28,0 L 595.28,0 0,0 0,841.89 z"
         id="path3811" />
    </clipPath>
    <clipPath
       clipPathUnits="userSpaceOnUse"
       id="clipPath3821">
      <path
         inkscape:connector-curvature="0"
         d="m 34.7236,791.844 249.7074,0 0,-191.021 -249.7074,0 0,191.021 z"
         id="path3823" />
    </clipPath>
    <clipPath
       clipPathUnits="userSpaceOnUse"
       id="clipPath3825">
      <path
         inkscape:connector-curvature="0"
         d="m 180.986,688.868 -44.18,0 -1.71,0 c -6.017,0 -10.324,-0.836 -12.92,-2.419 l 0,0 c -1.964,-1.203 -3.18,-3.031 -3.812,-5.436 l 0,0 c -0.508,-1.839 -0.675,-4.805 -0.675,-8.858 l 0,0 0,-11.401 c 0,-4.56 -0.909,-7.776 -2.556,-9.644 l 0,0 c -1.647,-1.868 -4.538,-2.569 -8.591,-2.569 l 0,0 c -0.191,0 -0.582,0.327 -1.088,0.327 l 0,0 -0.765,0 0,-2.503 c 16.565,-4.984 35.196,-7.784 54.888,-7.784 l 0,0 c 19.385,0 37.742,2.713 54.112,7.552 l 0,0 0,2.735 -1.507,0 c -0.508,0 -0.855,-0.327 -1.045,-0.327 l 0,0 c -4.054,0 -6.618,0.817 -8.265,2.686 l 0,0 c -1.647,1.867 -2.184,4.967 -2.184,9.527 l 0,0 0,11.401 c 0,4.053 -0.54,6.997 -1.046,8.835 l 0,0 c -0.634,2.407 -2.076,4.256 -4.038,5.459 l 0,0 c -2.535,1.583 -6.984,2.419 -13.064,2.419 l 0,0 -1.554,0 z"
         id="path3827" />
    </clipPath>
    <mask
       maskUnits="userSpaceOnUse"
       x="0"
       y="0"
       width="1"
       height="1"
       id="mask3839">
      <g
         id="g3841">
        <g
           id="g3843">
          <g
             id="g3845">
            <g
               id="g3847">
              <path
                 inkscape:connector-curvature="0"
                 d="m -32767,32767 65534,0 0,-65534 -65534,0 0,65534 z"
                 style="fill:url(#radialGradient3833);stroke:none"
                 id="path3849" />
            </g>
          </g>
        </g>
      </g>
    </mask>
    <radialGradient
       fx="0"
       fy="0"
       cx="0"
       cy="0"
       r="1"
       gradientUnits="userSpaceOnUse"
       gradientTransform="matrix(124.85034,0,0,-76.633133,159.57715,715.21289)"
       spreadMethod="pad"
       id="radialGradient3833">
      <stop
         style="stop-opacity:0;stop-color:#ffffff"
         offset="0"
         id="stop3835" />
      <stop
         style="stop-opacity:1;stop-color:#ffffff"
         offset="1"
         id="stop3837" />
    </radialGradient>
    <radialGradient
       fx="0"
       fy="0"
       cx="0"
       cy="0"
       r="1"
       gradientUnits="userSpaceOnUse"
       gradientTransform="matrix(124.85034,0,0,-76.633133,159.57715,715.21289)"
       spreadMethod="pad"
       id="radialGradient3851">
      <stop
         style="stop-opacity:1;stop-color:#ffffff"
         offset="0"
         id="stop3853" />
      <stop
         style="stop-opacity:1;stop-color:#ffffff"
         offset="1"
         id="stop3855" />
    </radialGradient>
    <linearGradient
       x1="0"
       y1="0"
       x2="1"
       y2="0"
       gradientUnits="userSpaceOnUse"
       gradientTransform="matrix(0,-86.071213,-86.071213,0,159.18848,688.36816)"
       spreadMethod="pad"
       id="linearGradient3797">
      <stop
         style="stop-opacity:1;stop-color:#7ebf28"
         offset="0"
         id="stop3799" />
      <stop
         style="stop-opacity:1;stop-color:#6fb019"
         offset="1"
         id="stop3801" />
    </linearGradient>
    <linearGradient
       inkscape:collect="always"
       xlink:href="#linearGradient3797"
       id="linearGradient4615"
       gradientUnits="userSpaceOnUse"
       gradientTransform="matrix(0,-86.071213,-86.071213,0,159.18848,688.36816)"
       spreadMethod="pad"
       x1="0"
       y1="0"
       x2="1"
       y2="0" />
    <radialGradient
       inkscape:collect="always"
       xlink:href="#radialGradient3851"
       id="radialGradient4620"
       gradientUnits="userSpaceOnUse"
       gradientTransform="matrix(124.85034,0,0,-76.633133,159.57715,715.21289)"
       spreadMethod="pad"
       cx="0"
       cy="0"
       fx="0"
       fy="0"
       r="1" />
  </defs>
  <sodipodi:namedview
     id="base"
     pagecolor="#ffffff"
     bordercolor="#666666"
     borderopacity="1.0"
     inkscape:pageopacity="0.0"
     inkscape:pageshadow="2"
     inkscape:zoom="4.7659501"
     inkscape:cx="68.125"
     inkscape:cy="57.38625"
     inkscape:document-units="px"
     inkscape:current-layer="layer1"
     showgrid="false"
     fit-margin-top="0"
     fit-margin-left="0"
     fit-margin-right="0"
     fit-margin-bottom="0"
     inkscape:window-width="1280"
     inkscape:window-height="716"
     inkscape:window-x="0"
     inkscape:window-y="22"
     inkscape:window-maximized="0" />
  <metadata
     id="metadata4233">
    <rdf:RDF>
      <cc:Work
         rdf:about="">
        <dc:format>image/svg+xml</dc:format>
        <dc:type
           rdf:resource="http://purl.org/dc/dcmitype/StillImage" />
        <dc:title></dc:title>
      </cc:Work>
    </rdf:RDF>
  </metadata>
  <g
     inkscape:label="Capa 1"
     inkscape:groupmode="layer"
     id="layer1"
     transform="translate(-280.44643,-420.6902)">
    <g
       id="g4754">
      <g
         transform="matrix(1.25,0,0,-1.25,149.58518,1281.7752)"
         id="g3793">
        <g
           id="g3795">
          <path
             id="path3803"
             style="fill:url(#linearGradient4615);stroke:none"
             d="m 180.986,688.868 -44.18,0 -1.71,0 c -6.017,0 -10.324,-0.836 -12.92,-2.419 l 0,0 c -1.964,-1.203 -3.18,-3.031 -3.812,-5.436 l 0,0 c -0.508,-1.839 -0.675,-4.805 -0.675,-8.858 l 0,0 0,-11.401 c 0,-4.56 -0.909,-7.776 -2.556,-9.644 l 0,0 c -1.647,-1.868 -4.538,-2.555 -8.591,-2.569 l 0,0 c -1.813,-0.006 -1.853,0.327 -1.853,0.327 l 0,0 0,-7.401 c 0,0 0.081,0.401 1.716,0.401 l 0,0 c 4.116,0 7.081,-1.102 8.728,-3.003 l 0,0 c 1.647,-1.9 2.556,-5.284 2.556,-9.844 l 0,0 0,-11.211 c 0,-4.052 0.167,-6.998 0.675,-8.836 l 0,0 c 0.632,-2.406 1.889,-4.211 3.854,-5.415 l 0,0 c 2.471,-1.521 6.661,-2.281 12.615,-2.281 l 0,0 48.5,-0.455 -1.657,0.045 1.148,0 c 5.954,0 10.168,0.965 12.636,2.485 l 0,0 c 1.963,1.206 3.548,3.112 4.182,5.518 l 0,0 c 0.506,1.838 1.046,4.887 1.046,8.939 l 0,0 0,11.211 c 0,4.56 0.537,7.944 2.184,9.844 l 0,0 c 1.647,1.901 4.242,3.003 8.36,3.003 l 0,0 c 2.457,0 2.457,-0.401 2.457,-0.401 l 0,0 0,7.401 c 0,0 -0.043,-0.333 -2.552,-0.327 l 0,0 c -4.054,0.011 -6.618,0.817 -8.265,2.686 l 0,0 c -1.647,1.867 -2.184,4.967 -2.184,9.527 l 0,0 0,11.401 c 0,4.053 -0.54,6.997 -1.046,8.835 l 0,0 c -0.634,2.407 -2.076,4.256 -4.038,5.459 l 0,0 c -2.535,1.583 -6.984,2.419 -13.064,2.419 l 0,0 -1.554,0 z"
             inkscape:connector-curvature="0" />
        </g>
      </g>
      <g
         transform="matrix(1.25,0,0,-1.25,356.1123,503.20708)"
         id="g3813">
        <path
           id="path3815"
           style="fill:#ffffff;fill-opacity:1;fill-rule:nonzero;stroke:none"
           d="m 0,0 c 0.944,0.242 2.282,-0.125 2.972,-0.814 l 24.473,-24.473 c 0.69,-0.69 1.819,-0.69 2.508,0 l 12.619,12.618 c 0.69,0.69 0.69,1.818 0,2.508 L 18.108,14.302 c -0.689,0.69 -1.054,2.028 -0.811,2.972 0,0 0.892,3.467 0.892,6.261 0,13.486 -10.931,24.418 -24.419,24.418 -2.6,0 -5.731,-0.748 -5.731,-0.748 -0.948,-0.227 -1.156,-0.973 -0.461,-1.657 L 4.117,29.255 C 4.813,28.57 5.175,27.239 4.922,26.297 L 2.621,17.706 C 2.368,16.764 1.391,15.786 0.449,15.534 l -8.592,-2.301 c -0.941,-0.252 -1.83,-0.341 -1.972,-0.197 -0.143,0.143 -0.826,0.822 -1.52,1.509 l -16.273,16.134 c -0.694,0.687 -1.469,0.479 -1.726,-0.463 0,0 -1.014,-3.732 -1.014,-6.681 0,-13.487 10.931,-24.418 24.419,-24.418 C -3.447,-0.883 0,0 0,0"
           inkscape:connector-curvature="0" />
      </g>
    </g>
  </g>
</svg>
