<?xml version="1.0" encoding="UTF-8" standalone="no"?>
<!-- Created with Inkscape (http://www.inkscape.org/) -->

<svg
   xmlns:dc="http://purl.org/dc/elements/1.1/"
   xmlns:cc="http://creativecommons.org/ns#"
   xmlns:rdf="http://www.w3.org/1999/02/22-rdf-syntax-ns#"
   xmlns:svg="http://www.w3.org/2000/svg"
   xmlns="http://www.w3.org/2000/svg"
   xmlns:xlink="http://www.w3.org/1999/xlink"
   version="1.1"
   width="136"
   height="110"
   id="svg3545">
  <defs
     id="defs3547">
    <clipPath
       id="clipPath3067">
      <path
         d="m 34.7236,791.844 249.7074,0 0,-191.021 -249.7074,0 0,191.021 z"
         id="path3069" />
    </clipPath>
    <clipPath
       id="clipPath3071">
      <path
         d="m 180.986,688.868 -44.18,0 -1.71,0 c -6.017,0 -10.324,-0.836 -12.92,-2.419 l 0,0 c -1.964,-1.203 -3.18,-3.031 -3.812,-5.436 l 0,0 c -0.508,-1.839 -0.675,-4.805 -0.675,-8.858 l 0,0 0,-11.401 c 0,-4.56 -0.909,-7.776 -2.556,-9.644 l 0,0 c -1.647,-1.868 -4.538,-2.569 -8.591,-2.569 l 0,0 c -0.191,0 -0.582,0.327 -1.088,0.327 l 0,0 -0.765,0 0,-2.503 c 16.565,-4.984 35.196,-7.784 54.888,-7.784 l 0,0 c 19.385,0 37.742,2.713 54.112,7.552 l 0,0 0,2.735 -1.507,0 c -0.508,0 -0.855,-0.327 -1.045,-0.327 l 0,0 c -4.054,0 -6.618,0.817 -8.265,2.686 l 0,0 c -1.647,1.867 -2.184,4.967 -2.184,9.527 l 0,0 0,11.401 c 0,4.053 -0.54,6.997 -1.046,8.835 l 0,0 c -0.634,2.407 -2.076,4.256 -4.038,5.459 l 0,0 c -2.535,1.583 -6.984,2.419 -13.064,2.419 l 0,0 -1.554,0 z"
         id="path3073" />
    </clipPath>
    <mask
       id="mask3085">
      <g
         id="g3087">
        <g
           id="g3089">
          <g
             id="g3091">
            <g
               id="g3093">
              <path
                 d="m -32767,32767 65534,0 0,-65534 -65534,0 0,65534 z"
                 id="path3095"
                 style="fill:url(#radialGradient3079);stroke:none" />
            </g>
          </g>
        </g>
      </g>
    </mask>
    <radialGradient
       cx="0"
       cy="0"
       r="1"
       fx="0"
       fy="0"
       id="radialGradient3079"
       gradientUnits="userSpaceOnUse"
       gradientTransform="matrix(124.85034,0,0,-76.633133,159.57715,715.21289)"
       spreadMethod="pad">
      <stop
         id="stop3081"
         style="stop-color:#ffffff;stop-opacity:0"
         offset="0" />
      <stop
         id="stop3083"
         style="stop-color:#ffffff;stop-opacity:1"
         offset="1" />
    </radialGradient>
    <radialGradient
       cx="0"
       cy="0"
       r="1"
       fx="0"
       fy="0"
       id="radialGradient3097"
       gradientUnits="userSpaceOnUse"
       gradientTransform="matrix(124.85034,0,0,-76.633133,159.57715,715.21289)"
       spreadMethod="pad">
      <stop
         id="stop3099"
         style="stop-color:#ffffff;stop-opacity:1"
         offset="0" />
      <stop
         id="stop3101"
         style="stop-color:#ffffff;stop-opacity:1"
         offset="1" />
    </radialGradient>
    <linearGradient
       x1="0"
       y1="0"
       x2="1"
       y2="0"
       id="linearGradient3388"
       xlink:href="#linearGradient3043"
       gradientUnits="userSpaceOnUse"
       gradientTransform="matrix(0,107.58902,-107.58902,0,198.9856,191.9023)"
       spreadMethod="pad" />
    <linearGradient
       x1="0"
       y1="0"
       x2="1"
       y2="0"
       id="linearGradient3043"
       gradientUnits="userSpaceOnUse"
       gradientTransform="matrix(0,-86.071213,-86.071213,0,159.18848,688.36816)"
       spreadMethod="pad">
      <stop
         id="stop3045"
         style="stop-color:#7ebf28;stop-opacity:1"
         offset="0" />
      <stop
         id="stop3047"
         style="stop-color:#6fb019;stop-opacity:1"
         offset="1" />
    </linearGradient>
  </defs>
  <metadata
     id="metadata3550">
    <rdf:RDF>
      <cc:Work
         rdf:about="">
        <dc:format>image/svg+xml</dc:format>
        <dc:type
           rdf:resource="http://purl.org/dc/dcmitype/StillImage" />
        <dc:title></dc:title>
      </cc:Work>
    </rdf:RDF>
  </metadata>
  <g
     transform="translate(-540.43955,-411.68102)"
     id="layer1">
    <path
       d="m 578.37972,411.68474 c -7.50669,0 -12.88626,1.05186 -16.12497,3.02942 -2.45025,1.50285 -3.95234,3.77273 -4.74081,6.77717 -0.63377,2.29737 -0.84212,5.99265 -0.84212,11.05585 l 0,14.24142 c 0,5.69657 -1.15775,9.72165 -3.21252,12.05525 -2.05476,2.33359 -5.64156,3.19932 -10.698,3.21681 -2.26186,0.007 -2.30802,-0.40601 -2.30802,-0.40601 l 0,9.24444 c 0,0 0.0811,-0.4997 2.12088,-0.4997 5.13504,0 8.83038,1.37292 10.88514,3.74774 2.05477,2.37358 3.21252,6.60853 3.21252,12.3051 l 0,13.99157 c 0,5.06196 0.20835,8.75973 0.84212,11.05585 0.78847,3.00569 2.35169,5.24184 4.80318,6.74594 3.08278,1.9001 8.29142,2.84204 15.71952,2.84204 l 60.50765,0.59339 -2.0585,-0.0625 1.43471,0 c 2.86995,0 5.42002,-0.20056 7.64144,-0.53093 l -25.8873,-25.9219 c -0.86083,-0.86073 -2.53384,-1.33295 -3.71155,-1.03063 0,0 -4.29542,1.12432 -7.76619,1.12432 -16.82737,0 -30.47216,-13.66427 -30.47216,-30.51288 0,-3.68403 1.27877,-8.33873 1.27877,-8.33873 0.32063,-1.17679 1.28626,-1.45162 2.15208,-0.59339 l 20.27318,20.17536 c 0.86582,0.85823 1.72416,1.69522 1.90256,1.87387 0.17716,0.17989 1.29,0.065 2.46398,-0.24985 l 10.72919,-2.87327 c 1.17522,-0.31481 2.39785,-1.54033 2.71349,-2.71712 l 2.86943,-10.7123 c 0.31564,-1.17679 -0.12975,-2.86078 -0.99806,-3.71651 l -20.64746,-20.3627 c -0.86707,-0.85449 -0.6213,-1.77768 0.56141,-2.06126 0,0 3.92988,-0.93694 7.17359,-0.93694 16.82736,0 30.44096,13.66553 30.44096,30.51288 0,3.4904 -1.09163,7.8078 -1.09163,7.8078 -0.30316,1.17929 0.13848,2.85453 0.99806,3.71652 l 21.67672,21.70568 0,-11.52431 c 0,-5.69657 0.65872,-9.93152 2.71348,-12.3051 2.05477,-2.37482 5.27976,-3.74774 10.4173,-3.74774 3.06531,0 3.08776,0.4997 3.08776,0.4997 l 0,-9.24444 c 0,0 -0.0823,0.41351 -3.21252,0.40601 -5.05769,-0.0137 -8.23777,-1.00689 -10.29254,-3.34174 -2.05476,-2.33234 -2.71348,-6.23375 -2.71348,-11.93032 l 0,-14.24142 c 0,-5.0632 -0.67869,-8.7285 -1.30996,-11.02462 -0.79097,-3.00694 -2.60495,-5.30555 -5.0527,-6.8084 -3.16262,-1.97756 -8.69564,-3.02942 -16.28093,-3.02942 l -1.96494,0 -55.11187,0 z"
       id="path3049"
       style="fill:#000000;stroke:none" />
  </g>
</svg>
