<?xml version="1.0" encoding="UTF-8" standalone="no"?>
<!-- Created with Inkscape (http://www.inkscape.org/) -->

<svg
   xmlns:dc="http://purl.org/dc/elements/1.1/"
   xmlns:cc="http://creativecommons.org/ns#"
   xmlns:rdf="http://www.w3.org/1999/02/22-rdf-syntax-ns#"
   xmlns:svg="http://www.w3.org/2000/svg"
   xmlns="http://www.w3.org/2000/svg"
   xmlns:sodipodi="http://sodipodi.sourceforge.net/DTD/sodipodi-0.dtd"
   xmlns:inkscape="http://www.inkscape.org/namespaces/inkscape"
   width="142"
   height="142"
   id="svg4228"
   version="1.1"
   inkscape:version="0.92.4 5da689c313, 2019-01-14"
   sodipodi:docname="Madrid DevOps - Solo logo ancho - Una tinta.svg"
   inkscape:export-filename="/home/ogarcia/Dropbox/Imágenes/Madrid DevOps/Logo with Spanner - Square One Ink.svg.png"
   inkscape:export-xdpi="457.14285"
   inkscape:export-ydpi="457.14285">
  <defs
     id="defs4230" />
  <sodipodi:namedview
     id="base"
     pagecolor="#ffffff"
     bordercolor="#666666"
     borderopacity="1.0"
     inkscape:pageopacity="0.0"
     inkscape:pageshadow="2"
     inkscape:zoom="5.8661972"
     inkscape:cx="71"
     inkscape:cy="71"
     inkscape:document-units="px"
     inkscape:current-layer="layer2"
     showgrid="false"
     fit-margin-top="0"
     fit-margin-left="0"
     fit-margin-right="0"
     fit-margin-bottom="0"
     inkscape:window-width="1920"
     inkscape:window-height="1029"
     inkscape:window-x="0"
     inkscape:window-y="27"
     inkscape:window-maximized="1"
     units="px"
     showguides="false" />
  <metadata
     id="metadata4233">
    <rdf:RDF>
      <cc:Work
         rdf:about="">
        <dc:format>image/svg+xml</dc:format>
        <dc:type
           rdf:resource="http://purl.org/dc/dcmitype/StillImage" />
        <dc:title></dc:title>
      </cc:Work>
    </rdf:RDF>
  </metadata>
  <g
     inkscape:label="Logo"
     inkscape:groupmode="layer"
     id="layer1"
     transform="translate(-280.44643,-393.4627)"
     style="display:inline">
    <path
       style="display:inline;opacity:1;fill:#6fb019;fill-opacity:1;stroke:none;stroke-width:1.05759561;stroke-opacity:1"
       d="m 322.36831,409.4627 c -7.50419,0 -12.87564,1.04375 -16.11329,3.02148 -2.44943,1.50298 -3.96569,3.78826 -4.7539,6.79297 -0.63356,2.29757 -0.8418,6.00275 -0.8418,11.06641 v 14.24414 c 0,5.69708 -1.13342,9.71503 -3.1875,12.04883 -2.05408,2.33381 -5.66008,3.19149 -10.71484,3.20898 -2.26111,0.007 -2.31055,-0.4082 -2.31055,-0.4082 v 5.02539 5.02539 c 0,0 0.0494,-0.4152 2.31055,-0.4082 5.05476,0.0175 8.66076,0.87517 10.71484,3.20898 2.05408,2.3338 3.1875,6.35175 3.1875,12.04883 v 14.24414 c 0,5.06366 0.20824,8.76883 0.8418,11.06641 0.78821,3.00471 2.30447,5.28999 4.7539,6.79297 3.23765,1.97773 8.6091,3.02148 16.11329,3.02148 h 29.07812 29.07813 c 2.4507,0 4.65074,-0.12103 6.64648,-0.33984 l -24.69922,-24.69922 c -0.8625,-0.86125 -2.53484,-1.31813 -3.71484,-1.01563 0,0 -4.30961,1.10352 -7.78711,1.10352 -16.86,0 -30.52344,-13.66469 -30.52344,-30.52344 0,-3.68625 1.26758,-8.35156 1.26758,-8.35156 0.32125,-1.1775 1.2907,-1.43688 2.1582,-0.57813 l 20.33985,20.16797 c 0.8675,0.85875 1.72164,1.70602 1.90039,1.88477 0.1775,0.18 1.28859,0.0689 2.46484,-0.2461 l 10.74023,-2.875 c 1.1775,-0.315 2.3986,-1.53734 2.71485,-2.71484 l 2.87695,-10.74023 c 0.31625,-1.1775 -0.13586,-2.84102 -1.00586,-3.69727 l -20.67383,-20.36523 c -0.86875,-0.855 -0.60882,-1.78852 0.57618,-2.07227 0,0 3.91406,-0.93359 7.16406,-0.93359 16.86,0 30.52344,13.66398 30.52344,30.52148 0,3.4925 -1.11524,7.82617 -1.11524,7.82617 -0.30375,1.18 0.15242,2.85235 1.01367,3.71485 l 20.8418,20.84179 v -12.0332 c 0,-5.69708 1.13342,-9.71503 3.1875,-12.04883 2.05408,-2.33381 5.66008,-3.19148 10.71484,-3.20898 2.26115,-0.007 2.31055,0.4082 2.31055,0.4082 v -5.02539 -5.02539 c 0,0 -0.0494,0.4152 -2.31055,0.4082 -5.05476,-0.0175 -8.66076,-0.87517 -10.71484,-3.20898 -2.05408,-2.3338 -3.1875,-6.35175 -3.1875,-12.04883 v -14.24414 c 0,-5.06366 -0.20824,-8.76884 -0.8418,-11.06641 -0.78821,-3.00471 -2.30447,-5.28999 -4.7539,-6.79297 -3.23765,-1.97773 -8.6091,-3.02148 -16.11328,-3.02148 h -29.07813 z"
       id="path839"
       inkscape:connector-curvature="0"
       inkscape:label="fondo" />
    <path
       style="display:inline;opacity:1;fill:#ffffff;fill-opacity:1;stroke:none;stroke-width:1.05759561;stroke-opacity:1"
       d="m 350.96987,433.46661 c -3.25,0 -7.16406,0.93359 -7.16406,0.93359 -1.185,0.28375 -1.44493,1.21727 -0.57618,2.07227 l 20.67383,20.36523 c 0.87,0.85625 1.32211,2.51977 1.00586,3.69727 l -2.87695,10.74023 c -0.31625,1.1775 -1.53735,2.39984 -2.71485,2.71484 l -10.74023,2.875 c -1.17625,0.315 -2.28734,0.4261 -2.46484,0.2461 -0.17875,-0.17875 -1.03289,-1.02602 -1.90039,-1.88477 L 323.87221,455.0584 c -0.8675,-0.85875 -1.83695,-0.59937 -2.1582,0.57813 0,0 -1.26758,4.66531 -1.26758,8.35156 0,16.85875 13.66344,30.52344 30.52344,30.52344 3.4775,0 7.78711,-1.10352 7.78711,-1.10352 1.18,-0.3025 2.85234,0.15438 3.71484,1.01563 l 24.69922,24.69922 c 4.11532,-0.45121 7.28649,-1.3498 9.4668,-2.68164 2.44943,-1.50298 3.96569,-3.78826 4.7539,-6.79297 0.63356,-2.29757 0.8418,-6.00275 0.8418,-11.06641 v -2.21094 l -20.8418,-20.84179 c -0.86125,-0.8625 -1.31742,-2.53485 -1.01367,-3.71485 0,0 1.11524,-4.33367 1.11524,-7.82617 0,-16.8575 -13.66344,-30.52148 -30.52344,-30.52148 z"
       id="path845"
       inkscape:connector-curvature="0"
       inkscape:label="llave" />
  </g>
  <g
     inkscape:groupmode="layer"
     id="layer3"
     inkscape:label="Mascaras"
     style="display:none"
     transform="translate(0,16)"
     sodipodi:insensitive="true">
    <path
       style="display:inline;opacity:1;fill:#6fb019;fill-opacity:1;stroke:none;stroke-width:1.05759561;stroke-opacity:1"
       d="m 41.921875,2.5e-6 c -7.50419,0 -12.875631,1.0437448 -16.113281,3.021484 -2.44943,1.50298 -3.965698,3.7882595 -4.753906,6.7929695 -0.63356,2.29757 -0.841797,6.002746 -0.841797,11.066406 v 14.244141 c 0,5.69708 -1.13342,9.715028 -3.1875,12.048828 -2.05408,2.33381 -5.660084,3.191494 -10.7148441,3.208984 C 4.0494369,50.389816 4,49.974612 4,49.974612 v 5.025391 5.025391 c 0,0 0.049397,-0.415205 2.3105469,-0.408203 5.0547601,0.0175 8.6607641,0.875174 10.7148441,3.208984 2.05408,2.3338 3.1875,6.351748 3.1875,12.048828 v 14.244141 c 0,5.063659 0.208237,8.768836 0.841797,11.066416 0.788208,3.00471 2.304476,5.28999 4.753906,6.79297 C 29.046244,108.95626 34.417685,110 41.921875,110 H 71 100.07813 c 7.50418,0 12.87563,-1.04374 16.11328,-3.02147 2.44943,-1.50298 3.96569,-3.78826 4.7539,-6.79297 0.63356,-2.29757 0.8418,-6.002757 0.8418,-11.066416 V 74.875003 c 0,-5.69708 1.13342,-9.715028 3.1875,-12.048828 2.05408,-2.33381 5.66008,-3.191485 10.71484,-3.208984 2.26115,-0.007 2.31055,0.408203 2.31055,0.408203 v -5.025391 -5.025391 c 0,0 -0.0494,0.415204 -2.31055,0.408203 -5.05476,-0.01749 -8.66076,-0.875174 -10.71484,-3.208984 -2.05408,-2.3338 -3.1875,-6.351748 -3.1875,-12.048828 V 20.880862 c 0,-5.06366 -0.20824,-8.768836 -0.8418,-11.066406 -0.78821,-3.00471 -2.30447,-5.2899895 -4.7539,-6.7929695 C 112.95376,1.0437469 107.58231,2.5e-6 100.07813,2.5e-6 H 71 Z"
       id="path5439"
       inkscape:connector-curvature="0"
       sodipodi:nodetypes="sccsscccccccssccscsccsscccccccssccscs"
       inkscape:label="fondo" />
    <path
       id="path3815"
       style="display:inline;fill:#800000;fill-opacity:1;fill-rule:nonzero;stroke:none;stroke-width:1.25"
       d="m 78.31,83.944378 c 1.18,-0.3025 2.8525,0.15625 3.715,1.017499 l 30.59125,30.591253 c 0.8625,0.86249 2.27375,0.86249 3.135,0 L 131.525,99.78063 c 0.8625,-0.8625 0.8625,-2.2725 0,-3.135 l -30.58,-30.578752 c -0.86125,-0.8625 -1.3175,-2.535 -1.01375,-3.715001 0,0 1.115,-4.33375 1.115,-7.82625 0,-16.8575 -13.66375,-30.5225 -30.52375,-30.5225 -3.25,0 -7.16375,0.935 -7.16375,0.935 -1.185,0.28375 -1.445,1.21625 -0.57625,2.07125 l 20.67375,20.36625 c 0.87,0.85625 1.3225,2.52 1.00625,3.6975 l -2.87625,10.73875 c -0.31625,1.1775 -1.5375,2.4 -2.715,2.715 l -10.74,2.87625 c -1.17625,0.315 -2.2875,0.42625 -2.465,0.24625 -0.17875,-0.178749 -1.0325,-1.0275 -1.9,-1.88625 L 43.425,45.595627 c -0.8675,-0.85875 -1.83625,-0.59875 -2.1575,0.57875 0,0 -1.2675,4.665 -1.2675,8.35125 0,16.85875 13.66375,30.522501 30.52375,30.522501 3.4775,0 7.78625,-1.10375 7.78625,-1.10375"
       inkscape:connector-curvature="0"
       inkscape:label="llave" />
  </g>
  <g
     inkscape:groupmode="layer"
     id="layer2"
     inkscape:label="Guias"
     style="display:none"
     transform="translate(0,2)"
     sodipodi:insensitive="true">
    <rect
       style="display:inline;fill:none;fill-opacity:1;stroke:#ff0000;stroke-width:2.90018415;stroke-opacity:1"
       id="rect868"
       width="107.09981"
       height="107.09982"
       x="17.450096"
       y="15.450089"
       inkscape:label="cuadrado" />
    <circle
       style="display:inline;fill:none;fill-opacity:1;stroke:#ff0000;stroke-width:1.18306315;stroke-opacity:1"
       id="path870"
       cx="71"
       cy="69"
       inkscape:label="circulo"
       r="30.408468" />
  </g>
</svg>
