<?xml version="1.0" encoding="UTF-8" standalone="no"?>
<!-- Created with Inkscape (http://www.inkscape.org/) -->

<svg
   xmlns:dc="http://purl.org/dc/elements/1.1/"
   xmlns:cc="http://creativecommons.org/ns#"
   xmlns:rdf="http://www.w3.org/1999/02/22-rdf-syntax-ns#"
   xmlns:svg="http://www.w3.org/2000/svg"
   xmlns="http://www.w3.org/2000/svg"
   xmlns:sodipodi="http://sodipodi.sourceforge.net/DTD/sodipodi-0.dtd"
   xmlns:inkscape="http://www.inkscape.org/namespaces/inkscape"
   width="520"
   height="150"
   id="svg5265"
   version="1.1"
   inkscape:version="0.92.4 5da689c313, 2019-01-14"
   sodipodi:docname="Madrid DevOps - Logo completo con zona de seguridad - Fondo blanco.svg">
  <defs
     id="defs5267" />
  <sodipodi:namedview
     id="base"
     pagecolor="#ffffff"
     bordercolor="#666666"
     borderopacity="1.0"
     inkscape:pageopacity="0.0"
     inkscape:pageshadow="2"
     inkscape:zoom="2.5326923"
     inkscape:cx="253.26965"
     inkscape:cy="75"
     inkscape:document-units="px"
     inkscape:current-layer="layer3"
     showgrid="false"
     fit-margin-top="0"
     fit-margin-left="0"
     fit-margin-right="0"
     fit-margin-bottom="0"
     inkscape:window-width="1920"
     inkscape:window-height="1029"
     inkscape:window-x="0"
     inkscape:window-y="27"
     inkscape:window-maximized="1" />
  <metadata
     id="metadata5270">
    <rdf:RDF>
      <cc:Work
         rdf:about="">
        <dc:format>image/svg+xml</dc:format>
        <dc:type
           rdf:resource="http://purl.org/dc/dcmitype/StillImage" />
        <dc:title></dc:title>
      </cc:Work>
    </rdf:RDF>
  </metadata>
  <g
     inkscape:groupmode="layer"
     id="layer3"
     inkscape:label="Fondo">
    <rect
       style="display:inline;opacity:1;fill:#ffffff;fill-opacity:1;stroke:none;stroke-width:0.48202261;stroke-miterlimit:4;stroke-dasharray:none;stroke-opacity:1"
       id="rect1089"
       width="520"
       height="150"
       x="0"
       y="0"
       inkscape:label="blanco" />
  </g>
  <g
     inkscape:groupmode="layer"
     id="layer2"
     inkscape:label="Texto"
     style="display:inline"
     transform="translate(0,28.617598)">
    <path
       transform="translate(169.69097,-440.72599)"
       id="path3783"
       style="display:inline;fill:#000000;fill-opacity:1;fill-rule:nonzero;stroke:none"
       d="m 320.38197,527.80145 c 0,-1.94 -0.81375,-3.47625 -2.44125,-4.60375 -1.63,-1.12625 -3.65,-2.16 -6.06,-3.1 -2.41125,-0.93875 -5.02625,-1.87875 -7.84375,-2.8175 -2.81875,-0.93875 -5.435,-2.19125 -7.845,-3.7575 -2.41125,-1.565 -4.43,-3.5375 -6.05875,-5.91875 -1.62875,-2.38 -2.4425,-5.48 -2.4425,-9.3 0,-3.25625 0.57875,-6.12125 1.7375,-8.59625 1.15875,-2.47375 2.78625,-4.50875 4.885,-6.10625 2.0975,-1.5975 4.635,-2.8025 7.60875,-3.61625 2.97375,-0.81375 6.2475,-1.22125 9.8175,-1.22125 4.13375,0 8.06375,0.36125 11.79,1.08 3.725,0.72 6.77875,1.7375 9.16,3.05375 l -4.41625,11.64875 c -0.75125,-0.43875 -1.7075,-0.8925 -2.865,-1.3625 -1.15875,-0.47 -2.49,-0.87625 -3.9925,-1.22125 -1.5025,-0.34375 -3.09875,-0.625 -4.79125,-0.84625 -1.69,-0.2175 -3.41375,-0.3275 -5.16625,-0.3275 -3.1325,0 -5.55875,0.54875 -7.28125,1.64375 -1.7225,1.09625 -2.5825,2.615 -2.5825,4.55625 0,1.94125 0.8125,3.49125 2.4425,4.65 1.62875,1.16 3.6475,2.22375 6.05875,3.19375 2.41,0.97125 5.02625,1.9425 7.845,2.9125 2.8175,0.97125 5.4325,2.22375 7.84375,3.7575 2.41,1.535 4.42875,3.46125 6.05875,5.7775 1.62875,2.3175 2.4425,5.2925 2.4425,8.925 0,3.6325 -0.6275,6.76375 -1.87875,9.39375 -1.25375,2.63 -3.0225,4.80625 -5.3075,6.52875 -2.28625,1.72375 -5.025,2.99125 -8.22,3.805 -3.195,0.8125 -6.7025,1.22125 -10.52125,1.22125 -2.56875,0 -4.995,-0.14125 -7.28,-0.4225 -2.2875,-0.2825 -4.4025,-0.6275 -6.3425,-1.03375 -1.94125,-0.40625 -3.64875,-0.845 -5.12,-1.315 -1.4725,-0.47 -2.64625,-0.92375 -3.5225,-1.3625 l 4.60375,-11.7425 c 0.68875,0.37625 1.6425,0.78375 2.865,1.22125 1.22125,0.43875 2.58375,0.86125 4.085,1.2675 1.505,0.40875 3.11625,0.7375 4.84,0.9875 1.72125,0.25 3.45875,0.375 5.2125,0.375 4.13375,0 7.2825,-0.59375 9.4425,-1.785 2.16125,-1.18875 3.24,-3.0375 3.24,-5.5425"
       inkscape:connector-curvature="0"
       inkscape:label="s" />
    <path
       transform="translate(169.69097,-440.72599)"
       id="path3779"
       style="display:inline;fill:#000000;fill-opacity:1;fill-rule:nonzero;stroke:none"
       d="m 252.62072,491.35182 c -1.315,0 -2.5825,0.0325 -3.80375,0.0937 -1.2225,0.0625 -2.20875,0.18875 -2.95875,0.37625 v 19.54 c 0.24875,0.0625 0.65625,0.12625 1.22,0.1875 0.565,0.0625 1.1575,0.11 1.785,0.14125 0.625,0.0325 1.20625,0.0625 1.73875,0.0937 0.53125,0.0325 0.95375,0.0475 1.2675,0.0475 1.81625,0 3.6325,-0.125 5.44875,-0.37625 1.81625,-0.25 3.43,-0.7825 4.83875,-1.5975 1.40875,-0.8125 2.55125,-1.925 3.4275,-3.335 0.87625,-1.40875 1.31625,-3.3025 1.31625,-5.68375 0,-2.0025 -0.4075,-3.61625 -1.22125,-4.8375 -0.815,-1.22125 -1.895,-2.175 -3.24125,-2.865 -1.34875,-0.68875 -2.88125,-1.15875 -4.6025,-1.40875 -1.72375,-0.25 -3.4625,-0.37625 -5.215,-0.37625 m -20.66625,-10.615 c 2.8175,-0.50125 5.95,-0.89375 9.39375,-1.175 3.4425,-0.28125 6.8875,-0.4225 10.33375,-0.4225 3.5075,0 7.045,0.2675 10.615,0.79875 3.57125,0.5325 6.77875,1.59625 9.63,3.19375 2.85,1.5975 5.18125,3.82 6.9975,6.67 1.81625,2.85125 2.725,6.6225 2.725,11.32 0,4.13375 -0.78375,7.65625 -2.34875,10.56875 -1.565,2.9125 -3.64875,5.27625 -6.24625,7.0925 -2.6,1.8175 -5.56,3.1475 -8.87875,3.9925 -3.32,0.845 -6.73375,1.26875 -10.23875,1.26875 h -1.5975 c -0.75125,0 -1.55,-0.015 -2.39625,-0.0475 -0.845,-0.0312 -1.64375,-0.0775 -2.39625,-0.14125 -0.75,-0.0612 -1.3125,-0.125 -1.68875,-0.1875 v 22.17 h -13.90375 z"
       inkscape:connector-curvature="0"
       inkscape:label="p" />
    <path
       transform="translate(169.69097,-440.72599)"
       id="path3775"
       style="display:inline;fill:#000000;fill-opacity:1;fill-rule:nonzero;stroke:none"
       d="m 179.18809,512.95895 c 0,3.25625 0.3125,6.2325 0.94,8.925 0.625,2.6925 1.565,5.01 2.8175,6.95125 1.2525,1.94125 2.86625,3.445 4.83875,4.50875 1.9725,1.06625 4.30375,1.5975 6.99875,1.5975 4.9475,0 8.7975,-1.69125 11.555,-5.07375 2.755,-3.38125 4.1325,-9.0175 4.1325,-16.90875 0,-3.13125 -0.28125,-6.04375 -0.845,-8.7375 -0.565,-2.69125 -1.48875,-5.025 -2.77125,-6.9975 -1.285,-1.97375 -2.9125,-3.5075 -4.885,-4.60375 -1.97375,-1.095 -4.36875,-1.64375 -7.18625,-1.64375 -4.885,0 -8.705,1.75375 -11.46125,5.26125 -2.75625,3.5075 -4.13375,9.08125 -4.13375,16.72125 m -14.74875,0 c 0,-5.38625 0.68875,-10.2075 2.06625,-14.4675 1.3775,-4.2575 3.36625,-7.84375 5.96625,-10.75625 2.5975,-2.9125 5.77625,-5.135 9.535,-6.67 3.7575,-1.53375 8.01625,-2.30125 12.77625,-2.30125 5.0725,0 9.5025,0.83125 13.29125,2.48875 3.79,1.66 6.95375,3.9925 9.49,6.99875 2.53625,3.00625 4.44625,6.60875 5.73,10.80375 1.28375,4.19625 1.92625,8.83 1.92625,13.90375 0,5.3875 -0.705,10.20875 -2.11375,14.4675 -1.40875,4.25875 -3.42875,7.84375 -6.06,10.75625 -2.62875,2.91125 -5.82375,5.13625 -9.5825,6.67 -3.7575,1.53375 -7.985,2.30125 -12.68125,2.30125 -5.0725,0 -9.505,-0.83125 -13.2925,-2.49 -3.79,-1.65875 -6.9525,-3.9925 -9.48875,-6.99875 -2.53625,-3.00625 -4.4325,-6.60625 -5.68375,-10.8025 -1.25375,-4.195 -1.87875,-8.83125 -1.87875,-13.90375"
       inkscape:connector-curvature="0"
       inkscape:label="o" />
    <path
       transform="translate(169.69097,-440.72599)"
       id="path3771"
       style="display:inline;fill:#000000;fill-opacity:1;fill-rule:nonzero;stroke:none"
       d="m 136.87859,523.70595 15.8175,-43.6275 h 14.655 l -26.58625,66.23 h -9.9575 l -26.7725,-66.23 h 16.15625 z"
       inkscape:connector-curvature="0"
       inkscape:label="v" />
    <path
       transform="translate(169.69097,-440.72599)"
       id="path3767"
       style="display:inline;fill:#000000;fill-opacity:1;fill-rule:nonzero;stroke:none"
       d="m 59.78746,480.0787 h 42.3675 v 12.2125 h -28.465 v 14.27875 h 25.835 v 12.2125 h -25.835 v 14.84375 h 28.93625 v 12.2125 H 59.78746 Z"
       inkscape:connector-curvature="0"
       inkscape:label="e" />
    <path
       transform="translate(169.69097,-440.72599)"
       id="path3763"
       style="display:inline;fill:#000000;fill-opacity:1;fill-rule:nonzero;stroke:none"
       d="m 18.76334,491.35182 c -1.44125,0 -2.9125,0.0163 -4.415,0.0475 -1.5025,0.0312 -2.6625,0.10875 -3.47625,0.235 v 42.64875 c 0.3125,0.0638 0.79875,0.11125 1.45625,0.14125 0.6575,0.0325 1.34625,0.0638 2.0675,0.0937 0.7175,0.0325 1.40875,0.0638 2.065,0.0937 0.65875,0.0325 1.1425,0.0475 1.4575,0.0475 4.00625,0 7.3275,-0.625 9.9575,-1.87875 2.63125,-1.2525 4.7125,-2.9125 6.24625,-4.97875 1.535,-2.0675 2.615,-4.41625 3.2425,-7.04625 0.625,-2.63 0.93875,-5.355 0.93875,-8.1725 0,-2.31625 -0.2825,-4.7275 -0.84625,-7.23375 -0.5625,-2.50375 -1.5825,-4.79125 -3.05125,-6.8575 -1.4725,-2.0675 -3.4625,-3.7725 -5.9675,-5.12 -2.505,-1.34625 -5.73,-2.02 -9.675,-2.02 m -21.795,-11.27375 c 1.3775,-0.1875 2.96,-0.3425 4.74375,-0.46875 1.785,-0.125 3.6325,-0.21875 5.5425,-0.2825 1.91,-0.0613 3.77375,-0.10875 5.59125,-0.14 1.815,-0.0312 3.4425,-0.0475 4.885,-0.0475 6.26125,0 11.63125,0.83125 16.11125,2.49 4.47625,1.66 8.13875,3.96125 10.99,6.905 2.85,2.94375 4.9325,6.45 6.24875,10.52125 1.31375,4.07125 1.9725,8.5175 1.9725,13.33875 0,4.385 -0.64375,8.64375 -1.92625,12.7775 -1.285,4.1325 -3.3675,7.8125 -6.2475,11.0375 -2.88125,3.22625 -6.63875,5.81 -11.2725,7.75 -4.63625,1.94125 -10.335,2.9125 -17.09875,2.9125 -1.065,0 -2.52125,-0.0325 -4.36875,-0.0937 -1.8475,-0.0625 -3.7575,-0.14125 -5.73,-0.235 -1.9725,-0.0937 -3.82,-0.1875 -5.54125,-0.28125 -1.72375,-0.0937 -3.0225,-0.205 -3.9,-0.32875 v -65.855 z"
       inkscape:connector-curvature="0"
       inkscape:label="d" />
    <text
       transform="translate(169.69097,-440.72599)"
       style="line-height:0%;display:inline;fill:#6fb019;fill-opacity:1"
       y="465.5737"
       x="-6.1670341"
       id="text3749"
       inkscape:label="madrid">
      <tspan
         style="font-variant:normal;font-weight:normal;font-stretch:normal;font-size:51.53762436px;line-height:1.25;font-family:'Museo Sans 500';-inkscape-font-specification:MuseoSans-500;writing-mode:lr-tb;fill:#6fb019;fill-opacity:1;fill-rule:nonzero;stroke:none"
         x="-6.1670341 40.938343 68.150208 99.124329 118.45093 131.28381"
         y="465.5737"
         sodipodi:role="line"
         id="tspan3751">madrid</tspan>
    </text>
  </g>
  <g
     inkscape:label="Logo"
     inkscape:groupmode="layer"
     id="layer1"
     transform="translate(169.69097,-412.10839)"
     style="display:inline">
    <path
       style="display:inline;opacity:1;fill:#6fb019;fill-opacity:1;stroke:none;stroke-width:1.05759561;stroke-opacity:1"
       d="m -115.74578,437.79959 c -7.50419,0 -12.87564,1.04375 -16.11329,3.02148 -2.44943,1.50298 -3.96569,3.78826 -4.7539,6.79297 -0.63356,2.29757 -0.8418,6.00275 -0.8418,11.06641 v 14.24414 c 0,5.69708 -1.13342,9.71503 -3.1875,12.04883 -2.05408,2.33381 -5.66008,3.19149 -10.71484,3.20898 -2.26111,0.007 -2.31055,-0.4082 -2.31055,-0.4082 v 5.02539 5.02539 c 0,0 0.0494,-0.4152 2.31055,-0.4082 5.05476,0.0175 8.66076,0.87517 10.71484,3.20898 2.05408,2.3338 3.1875,6.35175 3.1875,12.04883 v 14.24414 c 0,5.06366 0.20824,8.76883 0.8418,11.06641 0.78821,3.00471 2.30447,5.28999 4.7539,6.79297 3.23765,1.97773 8.6091,3.02148 16.11329,3.02148 h 29.07812 29.07813 c 2.4507,0 4.65074,-0.12103 6.64648,-0.33984 l -24.69922,-24.69922 c -0.8625,-0.86125 -2.53484,-1.31813 -3.71484,-1.01563 0,0 -4.30961,1.10352 -7.78711,1.10352 -16.86,0 -30.52344,-13.66469 -30.52344,-30.52344 0,-3.68625 1.26758,-8.35156 1.26758,-8.35156 0.32125,-1.1775 1.2907,-1.43688 2.1582,-0.57813 l 20.33985,20.16797 c 0.8675,0.85875 1.72164,1.70602 1.90039,1.88477 0.1775,0.18 1.28859,0.0689 2.46484,-0.2461 l 10.74023,-2.875 c 1.1775,-0.315 2.3986,-1.53734 2.71485,-2.71484 l 2.87695,-10.74023 c 0.31625,-1.1775 -0.13586,-2.84102 -1.00586,-3.69727 l -20.67383,-20.36523 c -0.86875,-0.855 -0.60882,-1.78852 0.57618,-2.07227 0,0 3.91406,-0.93359 7.16406,-0.93359 16.86,0 30.52344,13.66398 30.52344,30.52148 0,3.4925 -1.11524,7.82617 -1.11524,7.82617 -0.30375,1.18 0.15242,2.85235 1.01367,3.71485 l 20.8418,20.84179 v -12.0332 c 0,-5.69708 1.13342,-9.71503 3.1875,-12.04883 2.05408,-2.33381 5.66008,-3.19148 10.714839,-3.20898 2.26115,-0.007 2.31055,0.4082 2.31055,0.4082 v -5.02539 -5.02539 c 0,0 -0.0494,0.4152 -2.31055,0.4082 -5.054759,-0.0175 -8.660759,-0.87517 -10.714839,-3.20898 -2.05408,-2.3338 -3.1875,-6.35175 -3.1875,-12.04883 v -14.24414 c 0,-5.06366 -0.20824,-8.76884 -0.8418,-11.06641 -0.78821,-3.00471 -2.30447,-5.28999 -4.7539,-6.79297 -3.23765,-1.97773 -8.6091,-3.02148 -16.11328,-3.02148 h -29.07813 z"
       id="path839"
       inkscape:connector-curvature="0"
       inkscape:label="fondo" />
    <path
       style="display:inline;opacity:1;fill:#ffffff;fill-opacity:1;stroke:none;stroke-width:1.05759561;stroke-opacity:1"
       d="m -87.14422,461.8035 c -3.25,0 -7.16406,0.93359 -7.16406,0.93359 -1.185,0.28375 -1.44493,1.21727 -0.57618,2.07227 l 20.67383,20.36523 c 0.87,0.85625 1.32211,2.51977 1.00586,3.69727 l -2.87695,10.74023 c -0.31625,1.1775 -1.53735,2.39984 -2.71485,2.71484 l -10.74023,2.875 c -1.17625,0.315 -2.28734,0.4261 -2.46484,0.2461 -0.17875,-0.17875 -1.03289,-1.02602 -1.90039,-1.88477 l -20.33985,-20.16797 c -0.8675,-0.85875 -1.83695,-0.59937 -2.1582,0.57813 0,0 -1.26758,4.66531 -1.26758,8.35156 0,16.85875 13.66344,30.52344 30.52344,30.52344 3.4775,0 7.78711,-1.10352 7.78711,-1.10352 1.18,-0.3025 2.85234,0.15438 3.71484,1.01563 l 24.69922,24.69922 c 4.11532,-0.45121 7.28649,-1.3498 9.4668,-2.68164 2.44943,-1.50298 3.96569,-3.78826 4.7539,-6.79297 0.63356,-2.29757 0.8418,-6.00275 0.8418,-11.06641 v -2.21094 L -56.72235,503.866 c -0.86125,-0.8625 -1.31742,-2.53485 -1.01367,-3.71485 0,0 1.11524,-4.33367 1.11524,-7.82617 0,-16.8575 -13.66344,-30.52148 -30.52344,-30.52148 z"
       id="path845"
       inkscape:connector-curvature="0"
       inkscape:label="llave" />
  </g>
</svg>
