<?xml version="1.0" encoding="UTF-8" standalone="no"?>
<!-- Created with Inkscape (http://www.inkscape.org/) -->

<svg
   xmlns:dc="http://purl.org/dc/elements/1.1/"
   xmlns:cc="http://creativecommons.org/ns#"
   xmlns:rdf="http://www.w3.org/1999/02/22-rdf-syntax-ns#"
   xmlns:svg="http://www.w3.org/2000/svg"
   xmlns="http://www.w3.org/2000/svg"
   xmlns:sodipodi="http://sodipodi.sourceforge.net/DTD/sodipodi-0.dtd"
   xmlns:inkscape="http://www.inkscape.org/namespaces/inkscape"
   width="134"
   height="134"
   id="svg4228"
   version="1.1"
   inkscape:version="0.92.4 5da689c313, 2019-01-14"
   sodipodi:docname="Madrid DevOps - Solo logo ancho - Una tinta - Fondo blanco.svg"
   inkscape:export-filename="/home/ogarcia/Dropbox/Imágenes/Madrid DevOps/Logo with Spanner - Square One Ink.svg.png"
   inkscape:export-xdpi="457.14285"
   inkscape:export-ydpi="457.14285">
  <defs
     id="defs4230" />
  <sodipodi:namedview
     id="base"
     pagecolor="#ffffff"
     bordercolor="#666666"
     borderopacity="1.0"
     inkscape:pageopacity="0.0"
     inkscape:pageshadow="2"
     inkscape:zoom="6.2164179"
     inkscape:cx="67"
     inkscape:cy="67"
     inkscape:document-units="px"
     inkscape:current-layer="layer4"
     showgrid="false"
     fit-margin-top="0"
     fit-margin-left="0"
     fit-margin-right="0"
     fit-margin-bottom="0"
     inkscape:window-width="1920"
     inkscape:window-height="1029"
     inkscape:window-x="0"
     inkscape:window-y="27"
     inkscape:window-maximized="1"
     units="px"
     showguides="false" />
  <metadata
     id="metadata4233">
    <rdf:RDF>
      <cc:Work
         rdf:about="">
        <dc:format>image/svg+xml</dc:format>
        <dc:type
           rdf:resource="http://purl.org/dc/dcmitype/StillImage" />
        <dc:title></dc:title>
      </cc:Work>
    </rdf:RDF>
  </metadata>
  <g
     inkscape:groupmode="layer"
     id="layer4"
     inkscape:label="Fondo">
    <rect
       style="opacity:1;fill:#ffffff;fill-opacity:1;stroke:none;stroke-width:0.35134235;stroke-miterlimit:4;stroke-dasharray:none;stroke-opacity:1"
       id="rect885"
       width="134"
       height="134"
       x="0"
       y="3.8146973e-06"
       inkscape:label="blanco" />
  </g>
  <g
     inkscape:label="Logo"
     inkscape:groupmode="layer"
     id="layer1"
     transform="translate(-280.44643,-401.4627)"
     style="display:inline">
    <path
       style="display:inline;opacity:1;fill:#6fb019;fill-opacity:1;stroke:none;stroke-width:1.05759561;stroke-opacity:1"
       d="m 322.36831,413.4627 c -7.50419,0 -12.87564,1.04375 -16.11329,3.02148 -2.44943,1.50298 -3.96569,3.78826 -4.7539,6.79297 -0.63356,2.29757 -0.8418,6.00275 -0.8418,11.06641 v 14.24414 c 0,5.69708 -1.13342,9.71503 -3.1875,12.04883 -2.05408,2.33381 -5.66008,3.19149 -10.71484,3.20898 -2.26111,0.007 -2.31055,-0.4082 -2.31055,-0.4082 v 5.02539 5.02539 c 0,0 0.0494,-0.41521 2.31055,-0.4082 5.05476,0.0175 8.66076,0.87517 10.71484,3.20898 2.05408,2.3338 3.1875,6.35175 3.1875,12.04883 v 14.24414 c 0,5.06366 0.20824,8.76884 0.8418,11.06641 0.78821,3.00471 2.30447,5.28999 4.7539,6.79297 3.23765,1.97774 8.6091,3.02148 16.11329,3.02148 h 25.07812 25.07813 c 4.18564,0 7.68259,-0.3364 10.54101,-0.9668 l -24.07422,-24.07226 c -0.8625,-0.86125 -2.53484,-1.32008 -3.71484,-1.01758 0,0 -4.30961,1.10351 -7.78711,1.10351 -16.86,0 -30.52344,-13.66468 -30.52344,-30.52343 0,-3.68625 1.26758,-8.34961 1.26758,-8.34961 0.32125,-1.1775 1.2907,-1.43883 2.1582,-0.58008 l 20.3418,20.16797 c 0.8675,0.85875 1.71969,1.70797 1.89844,1.88672 0.1775,0.18 1.29054,0.0689 2.46679,-0.2461 l 10.73829,-2.87695 c 1.1775,-0.315 2.39859,-1.53734 2.71484,-2.71484 l 2.87695,-10.73828 c 0.31625,-1.1775 -0.13586,-2.84102 -1.00586,-3.69727 l -20.67383,-20.36719 c -0.86875,-0.855 -0.60882,-1.78656 0.57618,-2.07031 0,0 3.91406,-0.93555 7.16406,-0.93555 16.86,0 30.52344,13.66399 30.52344,30.52149 0,3.4925 -1.11524,7.82617 -1.11524,7.82617 -0.30375,1.18 0.15242,2.85234 1.01367,3.71484 l 16.32227,16.32227 v -7.51172 c 0,-5.69708 1.13342,-9.71503 3.1875,-12.04883 2.05408,-2.33381 5.66008,-3.19148 10.71484,-3.20898 2.26115,-0.007 2.31055,0.4082 2.31055,0.4082 v -5.02539 -5.02539 c 0,0 -0.0494,0.4152 -2.31055,0.4082 -5.05476,-0.0175 -8.66076,-0.87517 -10.71484,-3.20898 -2.05408,-2.3338 -3.1875,-6.35175 -3.1875,-12.04883 v -14.24414 c 0,-5.06366 -0.20824,-8.76884 -0.8418,-11.06641 -0.78821,-3.00471 -2.30447,-5.28999 -4.7539,-6.79297 -3.23765,-1.97774 -8.60909,-3.02148 -16.11328,-3.02148 h -25.07813 z"
       id="path866"
       inkscape:connector-curvature="0"
       sodipodi:nodetypes="sccsscccccccssccscscccsscccccccccccsscccscccccccssccscs"
       inkscape:label="fondo" />
    <path
       inkscape:label="llave"
       inkscape:connector-curvature="0"
       id="path869"
       d="m 347.4894,437.46465 c -3.25,0 -7.16406,0.93555 -7.16406,0.93555 -1.185,0.28375 -1.44493,1.21531 -0.57618,2.07031 l 20.67383,20.36719 c 0.87,0.85625 1.32211,2.51977 1.00586,3.69727 l -2.87695,10.73828 c -0.31625,1.1775 -1.53734,2.39984 -2.71484,2.71484 l -10.73829,2.87695 c -1.17625,0.315 -2.28929,0.4261 -2.46679,0.2461 -0.17875,-0.17875 -1.03094,-1.02797 -1.89844,-1.88672 l -20.3418,-20.16797 c -0.8675,-0.85875 -1.83695,-0.59742 -2.1582,0.58008 0,0 -1.26758,4.66336 -1.26758,8.34961 0,16.85875 13.66344,30.52343 30.52344,30.52343 3.4775,0 7.78711,-1.10351 7.78711,-1.10351 1.18,-0.3025 2.85234,0.15633 3.71484,1.01758 l 24.07422,24.07226 c 2.26627,-0.4998 4.14049,-1.18008 5.57227,-2.05468 2.44943,-1.50298 3.96569,-3.78826 4.7539,-6.79297 0.63356,-2.29757 0.8418,-6.00275 0.8418,-11.06641 v -6.73242 l -16.32227,-16.32227 c -0.86125,-0.8625 -1.31742,-2.53484 -1.01367,-3.71484 0,0 1.11524,-4.33367 1.11524,-7.82617 0,-16.8575 -13.66344,-30.52149 -30.52344,-30.52149 z"
       style="display:inline;opacity:1;fill:#ffffff;fill-opacity:1;stroke:none;stroke-width:1.05759561;stroke-opacity:1" />
  </g>
  <g
     inkscape:groupmode="layer"
     id="layer3"
     inkscape:label="Mascaras"
     style="display:none"
     transform="translate(0,8)"
     sodipodi:insensitive="true">
    <path
       style="display:inline;opacity:1;fill:#6fb019;fill-opacity:1;stroke:none;stroke-width:1.05759561;stroke-opacity:1"
       d="m 41.921875,3.801475 c -7.50419,0 -12.875631,1.0437448 -16.113281,3.021484 -2.44943,1.50298 -3.965698,3.788259 -4.753906,6.792969 -0.63356,2.29757 -0.841797,6.002746 -0.841797,11.066406 v 14.244141 c 0,5.69708 -1.13342,9.715028 -3.1875,12.048828 -2.05408,2.33381 -5.660084,3.191494 -10.7148441,3.208984 C 4.0494369,54.191288 4,53.776084 4,53.776084 v 5.025391 5.025391 c 0,0 0.049397,-0.415205 2.3105469,-0.408203 5.0547601,0.0175 8.6607641,0.875174 10.7148441,3.208984 2.05408,2.3338 3.1875,6.351748 3.1875,12.048828 v 14.244141 c 0,5.063659 0.208237,8.768834 0.841797,11.066414 0.788208,3.00471 2.304476,5.28999 4.753906,6.79297 3.23765,1.97773 8.609091,3.02147 16.113281,3.02147 H 67 92.078125 c 7.50419,0 12.875635,-1.04374 16.113285,-3.02147 2.44943,-1.50298 3.96569,-3.78826 4.7539,-6.79297 0.63356,-2.29757 0.8418,-6.002755 0.8418,-11.066414 V 78.676475 c 0,-5.69708 1.13342,-9.715028 3.1875,-12.048828 2.05408,-2.33381 5.66008,-3.191485 10.71484,-3.208984 2.26115,-0.007 2.31055,0.408203 2.31055,0.408203 v -5.025391 -5.025391 c 0,0 -0.0494,0.415204 -2.31055,0.408203 -5.05476,-0.01749 -8.66076,-0.875174 -10.71484,-3.208984 -2.05408,-2.3338 -3.1875,-6.351748 -3.1875,-12.048828 V 24.682334 c 0,-5.06366 -0.20824,-8.768836 -0.8418,-11.066406 -0.78821,-3.00471 -2.30447,-5.289989 -4.7539,-6.792969 C 104.95376,4.8452194 99.582315,3.801475 92.078125,3.801475 H 67 Z"
       id="path5439"
       inkscape:connector-curvature="0"
       sodipodi:nodetypes="sccsscccccccssccscsccsscccccccssccscs"
       inkscape:label="fondo" />
    <path
       id="path3815"
       style="display:inline;fill:#800000;fill-opacity:1;fill-rule:nonzero;stroke:none;stroke-width:1.25"
       d="m 74.83015,87.74438 c 1.18,-0.3025 2.8525,0.15625 3.715,1.0175 l 30.59125,30.59125 c 0.8625,0.8625 2.27375,0.8625 3.135,0 l 15.77375,-15.7725 c 0.8625,-0.8625 0.8625,-2.2725 0,-3.135 l -30.58,-30.57875 c -0.86125,-0.8625 -1.3175,-2.535 -1.01375,-3.715 0,0 1.115,-4.33375 1.115,-7.82625 0,-16.8575 -13.66375,-30.5225 -30.52375,-30.5225 -3.25,0 -7.16375,0.935 -7.16375,0.935 -1.185,0.28375 -1.445,1.21625 -0.57625,2.07125 L 79.9764,51.17563 c 0.87,0.85625 1.3225,2.52 1.00625,3.6975 L 78.1064,65.61188 c -0.31625,1.1775 -1.5375,2.4 -2.715,2.715 l -10.74,2.87625 c -1.17625,0.315 -2.2875,0.42625 -2.465,0.24625 -0.17875,-0.17875 -1.0325,-1.0275 -1.9,-1.88625 L 39.94515,49.39563 c -0.8675,-0.85875 -1.83625,-0.59875 -2.1575,0.57875 0,0 -1.2675,4.665 -1.2675,8.35125 0,16.85875 13.66375,30.5225 30.52375,30.5225 3.4775,0 7.78625,-1.10375 7.78625,-1.10375"
       inkscape:connector-curvature="0"
       inkscape:label="llave" />
  </g>
  <g
     inkscape:groupmode="layer"
     id="layer2"
     inkscape:label="Guias"
     style="display:none"
     transform="translate(0,-6)"
     sodipodi:insensitive="true">
    <rect
       style="display:inline;fill:none;fill-opacity:1;stroke:#ff0000;stroke-width:2.90018415;stroke-opacity:1"
       id="rect868"
       width="107.09981"
       height="107.09982"
       x="13.450096"
       y="19.450089"
       inkscape:label="cuadrado" />
    <circle
       style="display:inline;fill:none;fill-opacity:1;stroke:#ff0000;stroke-width:1.18417239;stroke-opacity:1"
       id="path870"
       cx="67"
       cy="73"
       r="30.436979"
       inkscape:label="circulo" />
  </g>
</svg>
