<?xml version="1.0" encoding="UTF-8" standalone="no"?>
<!-- Created with Inkscape (http://www.inkscape.org/) -->

<svg
   xmlns:dc="http://purl.org/dc/elements/1.1/"
   xmlns:cc="http://creativecommons.org/ns#"
   xmlns:rdf="http://www.w3.org/1999/02/22-rdf-syntax-ns#"
   xmlns:svg="http://www.w3.org/2000/svg"
   xmlns="http://www.w3.org/2000/svg"
   xmlns:sodipodi="http://sodipodi.sourceforge.net/DTD/sodipodi-0.dtd"
   xmlns:inkscape="http://www.inkscape.org/namespaces/inkscape"
   width="126"
   height="126"
   id="svg4228"
   version="1.1"
   inkscape:version="0.92.4 5da689c313, 2019-01-14"
   sodipodi:docname="Madrid DevOps - Solo logo - Una tinta - Fondo negro.svg"
   inkscape:export-filename="/home/ogarcia/Dropbox/Imágenes/Madrid DevOps/Logo with Spanner - Square One Ink.svg.png"
   inkscape:export-xdpi="457.14285"
   inkscape:export-ydpi="457.14285">
  <defs
     id="defs4230" />
  <sodipodi:namedview
     id="base"
     pagecolor="#ffffff"
     bordercolor="#666666"
     borderopacity="1.0"
     inkscape:pageopacity="0.0"
     inkscape:pageshadow="2"
     inkscape:zoom="6.6111111"
     inkscape:cx="63"
     inkscape:cy="63"
     inkscape:document-units="px"
     inkscape:current-layer="layer1"
     showgrid="false"
     fit-margin-top="0"
     fit-margin-left="0"
     fit-margin-right="0"
     fit-margin-bottom="0"
     inkscape:window-width="1920"
     inkscape:window-height="1029"
     inkscape:window-x="0"
     inkscape:window-y="27"
     inkscape:window-maximized="1"
     units="px"
     showguides="false" />
  <metadata
     id="metadata4233">
    <rdf:RDF>
      <cc:Work
         rdf:about="">
        <dc:format>image/svg+xml</dc:format>
        <dc:type
           rdf:resource="http://purl.org/dc/dcmitype/StillImage" />
        <dc:title></dc:title>
      </cc:Work>
    </rdf:RDF>
  </metadata>
  <g
     inkscape:groupmode="layer"
     id="layer3"
     inkscape:label="Fondo"
     sodipodi:insensitive="true">
    <rect
       transform="translate(-280.44643,-409.4627)"
       style="display:inline;opacity:1;fill:#000000;fill-opacity:1;stroke:none;stroke-width:0.53257561;stroke-miterlimit:4;stroke-dasharray:none;stroke-opacity:1"
       id="rect817"
       width="126"
       height="126"
       x="280.44644"
       y="409.46271"
       inkscape:label="negro" />
  </g>
  <g
     inkscape:label="Logo"
     inkscape:groupmode="layer"
     id="layer1"
     transform="translate(-280.44643,-409.4627)"
     style="display:inline">
    <path
       style="opacity:1;fill:#6fb019;fill-opacity:1;stroke:none;stroke-width:1.05759561;stroke-opacity:1"
       d="m 322.36831,417.4627 c -7.50419,0 -12.87564,1.04374 -16.11329,3.02148 -2.44943,1.50298 -3.96569,3.78826 -4.7539,6.79297 -0.63356,2.29757 -0.8418,6.00275 -0.8418,11.06641 v 14.24414 c 0,5.69708 -1.13342,9.71503 -3.1875,12.04883 -2.05408,2.33381 -5.66008,3.19149 -10.71484,3.20898 -2.26111,0.007 -2.31055,-0.4082 -2.31055,-0.4082 v 5.02539 5.02539 c 0,0 0.0494,-0.4152 2.31055,-0.4082 5.05476,0.0175 8.66076,0.87517 10.71484,3.20898 2.05408,2.3338 3.1875,6.35175 3.1875,12.04883 v 14.24414 c 0,5.06366 0.20824,8.76884 0.8418,11.06641 0.78821,3.00471 2.30447,5.28999 4.7539,6.79297 3.23765,1.97774 8.6091,3.02148 16.11329,3.02148 h 21.07812 21.07812 c 5.85186,0 10.389,-0.642 13.64649,-1.85938 l -23.17969,-23.17968 c -0.8625,-0.86125 -2.53484,-1.32008 -3.71484,-1.01758 0,0 -4.30961,1.10352 -7.78711,1.10352 -16.86,0 -30.52344,-13.66469 -30.52344,-30.52344 0,-3.68625 1.26758,-8.34961 1.26758,-8.34961 0.32125,-1.1775 1.2907,-1.43883 2.1582,-0.58008 l 20.3418,20.16797 c 0.8675,0.85875 1.71969,1.70797 1.89844,1.88672 0.1775,0.18 1.28859,0.0689 2.46484,-0.2461 l 10.74023,-2.87695 c 1.1775,-0.315 2.3986,-1.53734 2.71485,-2.71484 l 2.87695,-10.73828 c 0.31625,-1.1775 -0.13586,-2.84102 -1.00586,-3.69727 l -20.67383,-20.36719 c -0.86875,-0.855 -0.60882,-1.78656 0.57618,-2.07031 0,0 3.91406,-0.93555 7.16406,-0.93555 16.86,0 30.52344,13.66399 30.52344,30.52149 0,3.4925 -1.11524,7.82812 -1.11524,7.82812 -0.30375,1.18 0.15242,2.85235 1.01367,3.71485 l 12.32227,12.32226 v -3.51367 c 0,-5.69708 1.13342,-9.71503 3.1875,-12.04883 2.05408,-2.33381 5.66008,-3.19149 10.71484,-3.20898 2.26111,-0.007 2.31055,0.4082 2.31055,0.4082 v -5.02539 -5.02539 c 0,0 -0.0494,0.4152 -2.31055,0.4082 -5.05476,-0.0175 -8.66076,-0.87517 -10.71484,-3.20898 -2.05408,-2.3338 -3.1875,-6.35175 -3.1875,-12.04883 v -14.24414 c 0,-5.06366 -0.20824,-8.76884 -0.8418,-11.06641 -0.78821,-3.00471 -2.30447,-5.28999 -4.7539,-6.79297 -3.23765,-1.97774 -8.6091,-3.02148 -16.11329,-3.02148 h -21.07812 z"
       id="path5439"
       inkscape:connector-curvature="0"
       sodipodi:nodetypes="sccsscccccccssccscscccsscccccccccccsscccscccccccssccscs"
       inkscape:label="fondo" />
    <path
       style="opacity:1;fill:#ffffff;fill-opacity:1;stroke:none;stroke-width:1.05759561;stroke-opacity:1"
       d="m 343.49002,441.46435 c -3.25,0 -7.16406,0.93555 -7.16406,0.93555 -1.185,0.28375 -1.44492,1.21531 -0.57617,2.07031 l 20.67382,20.36719 c 0.87,0.85625 1.32211,2.51977 1.00586,3.69727 l -2.87695,10.73828 c -0.31625,1.1775 -1.53734,2.39984 -2.71484,2.71484 l -10.74024,2.87695 c -1.17625,0.315 -2.28734,0.4261 -2.46484,0.2461 -0.17875,-0.17875 -1.03094,-1.02797 -1.89844,-1.88672 l -20.3418,-20.16797 c -0.8675,-0.85875 -1.83695,-0.59742 -2.1582,0.58008 0,0 -1.26758,4.66336 -1.26758,8.34961 0,16.85875 13.66344,30.52344 30.52344,30.52344 3.4775,0 7.78711,-1.10352 7.78711,-1.10352 1.18,-0.3025 2.85234,0.15633 3.71484,1.01758 l 23.17969,23.17968 c 0.91979,-0.34373 1.75391,-0.72663 2.4668,-1.1621 2.44943,-1.50298 3.96569,-3.78826 4.7539,-6.79297 0.63356,-2.29757 0.8418,-6.00275 0.8418,-11.06641 V 495.85107 L 373.9119,483.52881 c -0.86125,-0.8625 -1.31743,-2.53485 -1.01368,-3.71485 0,0 1.11524,-4.33562 1.11524,-7.82812 0,-16.8575 -13.66344,-30.52149 -30.52344,-30.52149 z"
       id="path5421"
       inkscape:connector-curvature="0"
       inkscape:label="llave" />
  </g>
  <g
     inkscape:groupmode="layer"
     id="layer2"
     inkscape:label="Guias"
     style="display:none"
     transform="translate(0,-14)"
     sodipodi:insensitive="true">
    <rect
       style="display:inline;fill:none;fill-opacity:1;stroke:#ff0000;stroke-width:2.90018415;stroke-opacity:1"
       id="rect868"
       width="107.09981"
       height="107.09982"
       x="9.4500961"
       y="23.450089"
       inkscape:label="cuadrado" />
    <circle
       style="display:inline;fill:none;fill-opacity:1;stroke:#ff0000;stroke-width:1.18417239;stroke-opacity:1"
       id="path870"
       cx="63"
       cy="77"
       r="30.436979"
       inkscape:label="circulo" />
  </g>
</svg>
